<?xml version="1.0" encoding="UTF-8"?>
<svg id="Layer_2" data-name="Layer 2" xmlns="http://www.w3.org/2000/svg" width="895.15" height="277.4" viewBox="0 0 895.15 277.4">
  <defs>
    <style>
      .cls-1 {
        fill: #66cbe4;
      }

      .cls-2 {
        fill: #cb683c;
      }
    </style>
  </defs>
  <g id="Layer_1-2" data-name="Layer 1">
    <g>
      <path class="cls-1" d="M13.71,173.14c.09.82.83,1.42,1.65,1.33l18.83-2.03c.82-.09,1.42-.83,1.33-1.65l-5.27-48.8c-.09-.82.51-1.56,1.33-1.65l16.26-1.76c.82-.09,1.56.51,1.65,1.33l5.27,48.8c.09.82.83,1.42,1.65,1.33l18.83-2.03c.82-.09,1.42-.83,1.33-1.65l-13.7-126.85c-.09-.82-.83-1.42-1.65-1.33l-18.83,2.03c-.82.09-1.42.83-1.33,1.65l5.5,50.86c.09.82-.51,1.56-1.33,1.65l-16.26,1.76c-.82.09-1.56-.51-1.65-1.33l-5.5-50.86c-.09-.82-.83-1.42-1.65-1.33l-18.83,2.03c-.82.09-1.42.83-1.33,1.65l13.7,126.85Z"/>
      <path class="cls-1" d="M97.88,154.93c4.78,2.47,10.89,3.71,18.31,3.71h.16c7.31,0,13.39-1.24,18.23-3.71,4.84-2.47,8.41-5.99,10.73-10.56,2.31-4.57,3.47-10.19,3.47-16.85v-53.23c0-6.67-1.16-12.28-3.47-16.85-2.31-4.57-5.89-8.09-10.73-10.56-4.84-2.47-10.91-3.71-18.23-3.71h-.16c-7.31,0-13.39,1.24-18.23,3.71-4.84,2.47-8.41,6-10.73,10.56-2.31,4.57-3.47,10.19-3.47,16.85v53.23c-.11,6.56,1.02,12.15,3.39,16.77,2.36,4.62,5.94,8.17,10.73,10.65ZM105.7,76.38c0-2.58.35-4.78,1.05-6.61.7-1.83,1.8-3.28,3.31-4.35,1.5-1.07,3.55-1.61,6.13-1.61h.16c2.47,0,4.49.54,6.05,1.61,1.56,1.08,2.69,2.53,3.39,4.35.7,1.83,1.05,4.03,1.05,6.61v49.03c0,2.58-.35,4.79-1.05,6.61-.7,1.83-1.83,3.28-3.39,4.35-1.56,1.08-3.58,1.61-6.05,1.61h-.16c-2.58,0-4.62-.54-6.13-1.61-1.51-1.07-2.61-2.53-3.31-4.35-.7-1.83-1.05-4.03-1.05-6.61v-49.03Z"/>
      <path class="cls-1" d="M173.59,181.2c4.77,2.19,10.71,3.23,17.8,3.13h.32c7.09-.1,13.03-1.31,17.82-3.62,4.79-2.31,8.34-5.57,10.66-9.76,2.32-4.19,3.49-9.32,3.51-15.38l.21-73.63c0-.75-.67-1.36-1.5-1.34l-18.92.26c-.83.01-1.5.63-1.5,1.39l-.2,71.72c0,2.35-.33,4.36-.98,6.03-.65,1.67-1.73,3.01-3.23,4.01-1.51,1-3.5,1.51-5.97,1.55-2.47.03-4.46-.43-5.96-1.39-1.5-.96-2.57-2.26-3.21-3.92-.64-1.65-.96-3.66-.95-6l.2-71.72c0-.75-.67-1.36-1.5-1.34l-18.92.26c-.83.01-1.5.63-1.5,1.39l-.21,73.63c-.02,6.07,1.12,11.16,3.42,15.29,2.3,4.13,5.83,7.28,10.61,9.47Z"/>
      <path class="cls-1" d="M263.44,164.01h.15c6.69.13,12.24-1.05,16.64-3.52,4.4-2.47,7.74-6.24,10.02-11.31,2.27-5.07,3.48-11.37,3.62-18.91.11-5.84-.28-10.89-1.16-15.17-.88-4.27-2.36-8.04-4.43-11.31-2.07-3.26-4.8-6.26-8.2-9l-10.94-8.78c-.68-.53-1.11-.83-1.28-.92l-.23-.15c-3.91-3.18-6.62-5.86-8.13-8.05-1.53-2.22-2.31-5.21-2.34-8.99.07-3.53.85-6.28,2.36-8.26,1.51-1.98,3.68-2.94,6.52-2.89h.15c3.14.06,5.35,1.44,6.61,4.14,1.17,2.5,1.75,6.49,1.74,11.97,0,.77.62,1.39,1.39,1.41l17.24.32c.79.01,1.44-.62,1.44-1.4.1-13.14-1.92-22.95-6.06-29.43-4.29-6.71-11.6-10.16-21.94-10.35h-.15c-9.83-.19-17.24,2.75-22.22,8.8-4.98,6.05-7.56,14-7.74,23.85-.12,6.2.44,11.51,1.68,15.91,1.23,4.4,2.99,8.15,5.27,11.23,2.27,3.08,5.26,5.94,8.97,8.56l12.15,9.17c2,1.62,3.61,3.2,4.85,4.74,1.24,1.55,2.19,3.39,2.86,5.53.67,2.14.98,4.61.93,7.41-.08,4.14-.84,7.19-2.3,9.17-1.46,1.98-3.76,2.94-6.9,2.88h-.15c-3.55-.07-6-1.58-7.37-4.52-1.26-2.72-1.89-6.83-1.89-12.32,0-.78-.61-1.41-1.39-1.43l-17.24-.32c-.79-.01-1.44.62-1.44,1.41-.11,14.21,2.18,24.42,6.87,30.63,4.85,6.42,12.19,9.72,22.02,9.9Z"/>
      <path class="cls-1" d="M301.57,163.63l50.66,8.39c.82.14,1.59-.42,1.72-1.23l3.22-19.44c.14-.82-.42-1.59-1.23-1.72l-29.02-4.81c-.82-.14-1.37-.91-1.23-1.72l4-24.17c.14-.82.91-1.37,1.72-1.23l24.25,4.02c.82.14,1.59-.42,1.72-1.23l3.22-19.44c.14-.82-.42-1.59-1.23-1.72l-24.25-4.02c-.82-.14-1.37-.91-1.23-1.72l3.94-23.82c.14-.82.91-1.37,1.72-1.23l29.02,4.81c.82.14,1.59-.42,1.72-1.23l3.22-19.44c.14-.82-.42-1.59-1.23-1.72l-50.66-8.39c-.82-.14-1.59.42-1.72,1.23l-19.57,118.16c-.14.82.42,1.59,1.23,1.72Z"/>
      <path class="cls-1" d="M574.48,44.1l-26.38-3.59c-.82-.11-1.57.55-1.67,1.48l-12.42,117.15c-.1.93.49,1.78,1.31,1.89l18.8,2.56c.82.11,1.57-.55,1.67-1.48l3-28.33c.1-.93.85-1.6,1.67-1.48l4.6.63c11.21,1.52,20.06-.48,26.55-6.02,6.49-5.54,10.33-13.94,11.52-25.2l1.81-17.07c1.19-11.26-.78-20.45-5.93-27.57-5.15-7.12-13.33-11.44-24.54-12.97ZM583.16,81.68l-1.81,17.07c-.48,4.53-1.86,7.79-4.12,9.77-2.27,1.99-5.54,2.69-9.81,2.11l-4.6-.63c-.82-.11-1.41-.96-1.31-1.89l4.33-40.86c.1-.93.85-1.6,1.67-1.48l4.6.63c4.27.58,7.3,2.14,9.09,4.68,1.79,2.54,2.44,6.07,1.96,10.6Z"/>
      <path class="cls-1" d="M681.04,179.16l-29.21-125.61c-.17-.72-.84-1.22-1.58-1.16l-29.73,2.46c-.74.06-1.32.65-1.37,1.39l-8.64,128.74c-.06.92.71,1.67,1.62,1.6l18.98-1.57c.75-.06,1.33-.67,1.37-1.41l1.2-22.3c.04-.75.63-1.35,1.37-1.41l17.8-1.47c.75-.06,1.43.44,1.59,1.18l4.7,21.8c.16.74.84,1.24,1.59,1.18l18.98-1.57c.91-.08,1.54-.94,1.34-1.83ZM648.16,133.81l-12.53,1.04c-.9.07-1.66-.66-1.62-1.56l2.14-51.17c.07-1.77,2.61-1.97,2.97-.24l10.39,50.13c.18.88-.45,1.73-1.35,1.8Z"/>
      <path class="cls-1" d="M747.12,118.31c2.16-5.25,2.94-11.66,2.33-19.22l-1.22-15.12c-.95-11.76-4.53-20.32-10.74-25.68-6.21-5.36-15.04-7.57-26.51-6.64l-26.48,2.14c-.83.07-1.44.79-1.37,1.62l9.85,121.61c.07.83.79,1.44,1.62,1.37l18.87-1.53c.83-.07,1.44-.79,1.37-1.62l-3.01-37.16c-.07-.83.55-1.55,1.37-1.62l4.61-.37c.29-.02.57-.05.85-.08.67-.07,1.3.33,1.54.95l14.28,37.11c.24.62.86,1.01,1.52.96l19.92-1.61c1.03-.08,1.67-1.16,1.25-2.11l-18.3-40.78c-.29-.64-.09-1.37.46-1.81,3.46-2.75,6.06-6.22,7.78-10.41ZM725.21,109.48c-1.85,2.51-4.92,3.93-9.2,4.28l-4.61.37c-.83.07-1.55-.55-1.62-1.37l-2.92-36.08c-.07-.83.55-1.55,1.37-1.62l4.61-.37c4.28-.35,7.54.57,9.77,2.74,2.22,2.18,3.53,5.6,3.91,10.29l.89,10.98c.38,4.68-.36,8.27-2.2,10.78Z"/>
      <path class="cls-1" d="M819.06,58.04l-57.94-4.7c-.83-.07-1.55.55-1.62,1.37l-1.69,20.78c-.07.83.55,1.55,1.37,1.62l16.62,1.35c.83.07,1.44.79,1.37,1.62l-7.94,97.84c-.07.83.55,1.55,1.37,1.62l18.87,1.53c.83.07,1.55-.55,1.62-1.37l7.94-97.84c.07-.83.79-1.44,1.62-1.37l16.46,1.34c.83.07,1.55-.55,1.62-1.37l1.69-20.78c.07-.83-.55-1.55-1.37-1.62Z"/>
      <path class="cls-1" d="M893.55,38.52l-20.79,1.28c-.73.04-1.31.57-1.39,1.24l-6.39,55.9c-.18,1.55-2.55,1.69-2.95.19l-14.53-54.62c-.17-.65-.83-1.1-1.56-1.05l-20.95,1.3c-.98.06-1.63.96-1.32,1.82l31.33,87.48c.04.11.06.23.07.34l3.29,45.49c.06.76.77,1.34,1.6,1.29l18.89-1.17c.83-.05,1.45-.71,1.4-1.48l-3.39-46.89c0-.12,0-.23.02-.35l18.24-89.14c.18-.89-.59-1.7-1.57-1.64Z"/>
      <g>
        <path class="cls-1" d="M376.42,20.69l22.83-6.88c.39-.09.71-.17.97-.24,1.5-.46,2.69-.97,3.58-1.54.89-.56,1.56-1.26,2.02-2.09.46-.83.69-1.86.69-3.08,0-1.54-.38-2.84-1.14-3.87-.76-1.04-1.82-1.79-3.17-2.27-1.35-.47-2.9-.71-4.65-.71h-19.2c-2.77,0-4.93.41-6.5,1.23-1.57.82-2.7,2.22-3.39,4.2l3.39,1.14c.48-1.29,1.24-2.19,2.27-2.7,1.03-.51,2.44-.76,4.24-.76h19.2c1.68,0,3.02.31,4.01.92.99.61,1.49,1.55,1.49,2.82,0,.78-.14,1.42-.43,1.9-.29.48-.76.92-1.42,1.3s-1.61.77-2.85,1.16l-29.68,8.89v3.84h38.36v-2.8h-33.24l2.62-.45Z"/>
        <path class="cls-1" d="M449.11,1.31c-1.86-.88-4.11-1.31-6.76-1.31h-18.44c-2.65,0-4.91.44-6.78,1.31-1.87.88-3.29,2.21-4.27,4-.98,1.79-1.47,4.01-1.47,6.66v.03c0,2.63.49,4.84,1.47,6.62s2.4,3.12,4.27,4c1.87.88,4.13,1.31,6.78,1.31h18.44c2.65,0,4.91-.44,6.76-1.31,1.86-.88,3.27-2.21,4.25-4,.98-1.79,1.47-4,1.47-6.62v-.03c0-2.65-.49-4.87-1.47-6.66-.98-1.79-2.4-3.12-4.25-4ZM451.41,12c0,2.93-.78,5.13-2.35,6.61-1.57,1.48-3.8,2.21-6.71,2.21h-18.44c-2.91,0-5.14-.74-6.71-2.21-1.57-1.48-2.35-3.68-2.35-6.61v-.03c0-2.93.78-5.14,2.35-6.62s3.81-2.23,6.71-2.23h18.44c2.91,0,5.14.74,6.71,2.23s2.35,3.7,2.35,6.62v.03Z"/>
        <path class="cls-1" d="M467.11,20.69l22.83-6.88c.39-.09.71-.17.97-.24,1.5-.46,2.69-.97,3.58-1.54.89-.56,1.56-1.26,2.02-2.09.46-.83.69-1.86.69-3.08,0-1.54-.38-2.84-1.14-3.87-.76-1.04-1.82-1.79-3.17-2.27-1.35-.47-2.9-.71-4.65-.71h-19.2c-2.77,0-4.94.41-6.5,1.23-1.57.82-2.7,2.22-3.39,4.2l3.39,1.14c.48-1.29,1.24-2.19,2.27-2.7,1.03-.51,2.44-.76,4.24-.76h19.2c1.68,0,3.02.31,4.01.92s1.49,1.55,1.49,2.82c0,.78-.14,1.42-.43,1.9-.29.48-.76.92-1.42,1.3s-1.61.77-2.85,1.16l-29.68,8.89v3.84h38.36v-2.8h-33.24l2.62-.45Z"/>
        <path class="cls-1" d="M537.99,10c-1.27-.69-2.85-1.04-4.74-1.04h-18.02c-.81,0-1.54.06-2.21.19-.67.13-1.41.38-2.21.74l19.02-9.89h-5.88l-16.84,8.82c-1.5.76-2.63,1.55-3.41,2.37-.77.82-1.29,1.64-1.54,2.46-.25.82-.38,1.74-.38,2.75,0,1.36.3,2.61.9,3.75.6,1.14,1.53,2.06,2.8,2.75,1.27.69,2.87,1.04,4.81,1.04h22.97c1.94,0,3.54-.34,4.81-1.02,1.27-.68,2.2-1.58,2.78-2.71s.88-2.38.88-3.74-.31-2.61-.92-3.74-1.55-2.04-2.82-2.73ZM536.92,19.8c-.92.84-2.21,1.26-3.87,1.26h-22.55c-1.11,0-2.06-.21-2.85-.62-.8-.42-1.4-.97-1.8-1.68s-.61-1.49-.61-2.37c0-1.71.51-2.92,1.54-3.63,1.03-.71,2.27-1.07,3.72-1.07h22.59c1.08,0,2.02.21,2.82.64.79.43,1.39,1,1.8,1.71.4.71.6,1.52.6,2.42,0,1.38-.46,2.5-1.38,3.34Z"/>
      </g>
    </g>
    <g>
      <g>
        <path class="cls-2" d="M426.14,61.78l-.56-2.02c-1.74.85-2.24,2.75-2.03,4.61.05.4.36.71.38,1.09.14,1.98,0,3.85.42,5.84.26,1.23,1.44,2.97,2.89,2.82.2-.66-.33-1.14-.38-1.65-.3-3.58-.62-7.09-.72-10.69Z"/>
        <path class="cls-2" d="M471.22,57.2c-.96.63-.44,1.79-.55,2.76-.53,4.41-.97,8.82-1.47,13.25-.14,1.21-1.07,2.09.57,3.11,2.68-.54,2.1-2.94,2.36-4.97.51-3.9.94-7.86,1.49-11.76.26-1.84-.64-2.44-2.39-2.39Z"/>
        <path class="cls-2" d="M389.71,120.3l6.62,5.88,10.5,6.8c.51.2.8-.69,1.08-1.1,1.26-1.85,2.88-4.3,3.14-6.43.23-1.89-.16-4.14,0-6.07l10.37,26.02,5.82,10.97c-.43.31-.84-.54-1.05-.79-3.7-4.55-7.3-9.2-10.55-14.11l-2.02-1.84,1.85,10.48c.52,6.45.5,13.06,0,19.52-.06.73-.69,1.75-.37,2.75l10.48,2.22c14.84,1.94,30.07-.29,41.6-10.67.7-.63,1.31-1.4,2.01-2.03l-4.03,1.85c-4.67,1.86-9.52,3.56-14.54,4.23-1.09.14-2.35-.33-3.38.3l-1.23-.31c2.1-.38,4.29-1.2,6.27-2.01,5.35-2.19,10.12-5.36,14.53-9.02l6.62-6.62c2.9-8.36,5.86-16.75,8.2-25.28.63-2.28,1.19-4.77,1.54-7.11.64-.09.36.84.37,1.29.03,1.55.09,3.26,0,4.79-.09,1.61-.6,3.87-.75,5.51-.07.78.06,1.61,0,2.4,5.74-2.13,11.41-4.74,16.02-8.82l.19-.56c-1.12-2.15-2.6-4.17-3.53-6.43-2.19-5.33-2.72-10.84-5.74-15.97-3.98-6.75-9.37-7.52-15.78-10.71-1.28-.64-2.64-1.69-3.9-2.35-.42-.22-2.53-1.35-2.71-1.15.06.42-.03.73-.17,1.12-2.32,6.24-6.05,11.84-11.61,15.62-2.67,1.82-6.05,2.89-9.2,3.5l3.87-2.57,2.01-2.95c-5.59-.14-8.41-5.38-11.59-9.2l-5.15-8.44c-6.23,2.37-12.32,4.94-18.35,7.76-2.41,1.13-4.49,1.38-6.87,2.33-9.32,3.71-10.58,11.37-15.12,19.1-1.65,2.81-3.57,5.49-5.46,8.15Z"/>
        <path class="cls-2" d="M353.27,187.83c3.35.59,3.05-3.3,3.85-5.54.48-1.35,1.59-2.77,2.09-4.17l1.79-2.26-3.62,9.26-1.9,8.96c2.63.64,3.8-1.93,4.61-4.03,1.1-2.85.64-5.4,1.71-8.22.56-1.47,1.61-2.75,1.94-4.31l.93-1.46c-.24,2.55-1.7,5.13-2.22,7.54-.59,2.78-.61,6-1.09,8.85-.23,1.39-.94,3.09-1.12,4.4-.07.53.04,1.12.01,1.66,2.15.98,3.36-.24,4.36-2.07,2.09-3.81,1.42-9.01,2.32-13.14l2.69-6.51.93-1.46-2.58,10.48c-.15,2.81-.54,5.63-1.16,8.41-.17.79-1.3,2.39-.32,3.01,1.32.84,3.08-.14,3.87-1.3,1.67-2.45,1.71-7.22,2.45-10.06.66-2.54,2.87-6.7,4.9-8.35.42-.34,1.74-1.39,2.03-.91l-.74.74c0,.4,2.42,1.01,2.95,1.46.3.25.76,1.23.92,1.65,1.1,2.75-.13,5.36,1.83,8.11.95,1.34,3.8,3.25,4.61.92-.16-.81-.8-1.48-1.06-2.26-.26-.77-.81-4.03-.81-4.73,0-1.12.62-3.53.76-4.78.43-3.77-2.98-5.95-4.79-8.84v-7.18l.74,2.21c.1.13.6-.36.75-.54,4.47-5.49,9.11-11.07,6.08-18.61-.41-1.02-1.03-1.71-1.67-2.56.68-.14.87.37,1.29.74.96.84,2.44,2.13,2.76,3.31h.55c3.65-2.77,6.35-6.56,8.64-10.51l-13.23-9.37-5.33,8.84c-2.95,4.54-6.75,7.84-8.58,13.13-1.73,4.99-1.27,10.57-3.18,15.22-.51,1.23-1.29,2.38-2.04,3.48l2.02-.19h2.4s-13.81,6.62-13.81,6.62c-1.27.97-3.36,4.57-4.17,6.13-1.34,2.56-1.98,5.66-3.36,8.23ZM380.32,176.05c.24,0,.24.37,0,.37s-.24-.37,0-.37ZM364.86,175.32c.24,0,.24.37,0,.37s-.24-.37,0-.37Z"/>
        <path class="cls-2" d="M434.95,71.37c.17,2.74.87,6.93,1.92,9.49,1.08,2.63,2.93,4.96,4.53,7.25,1.19,1.7,3.4,5.32,4.97,6.43,2.29,1.63,5.62,1.94,7.92.19,2.41-1.83,6.3-8.08,7.85-10.91,2.97-5.43,3.43-8.7,4.09-14.68.05-.48.77-1.29.19-1.65l-1.29,1.1c.48-2.69,1.28-5.41.36-8.09-1.87-.27-3.47,1.04-5.13,1.66-2.48.93-4.67,1.58-7.37,1.27.72.89,2.76,1.94,3.86,2.21.62.15,1.1-.41.92.73h-6.07c-2.07-.7-4.28-1.47-6.21-2.63-1.85-1.11-4.18-3.59-6.11-4.2-2.58-.82-3.18,2.84-2.97,4.81.06.53.26,1.66.37,2.21.16.8.7,1.55.74,2.38l-2.58-2.58c.09,1.64-.12,3.35-.01,4.98Z"/>
        <path class="cls-2" d="M498.44,128.58c-3.79,2.84-8.29,5.35-12.88,6.63-.24.07-.88-.11-.56.54.1.2.49.44.69.79,1.47,2.64,3.41,4.9,4.78,7.36,1.03,1.84,1.02,3.14,1.69,4.93,1.33,3.52,3.87,5.74,6.83,7.89,3.23,2.36,6.86,4.18,10.12,6.44.9-.64.45-1.71.6-2.71.03-.17.31-1.11.69-.97,0,1.9,1.01,3.82.75,5.71-.23,1.62-2.88,4.51-3.27,6.3-.81,3.71.74,7.7-.96,11.92-.29.72-.71,1.48-1.29,2.01,1.59,2.09,4.1.42,5.32-1.29,1.46-2.05.79-4.9,1.84-6.99.59-1.19,2.1-2.44,3.5-2.2l-1.1-1.66c.3-.48,1.62.57,2.03.91,6.17,5.03,5.04,11.41,7.22,17.8.55,1.62,1.69,3.57,3.49,3.89.56-.1,1.71-.54,1.58-1.22-.03-.15-.26-.28-.29-.46-.47-3.68-1.64-7.24-1.52-10.99l-2.4-9.74c.74.81,1.07,1.94,1.49,2.93,1.61,3.88,2.29,6.76,2.75,10.86.25,2.19.15,4.43,1.15,6.57.57,1.21,2.28,3.24,3.78,2.79l.97-1.26c-1.32-4.36-1.69-8.82-2.22-13.26l-2.22-7.54,2.04,3.67c1.64,3.56,1.27,7.29,3.17,10.81.62,1.16,1.52,2.25,2.75,2.8.57-.11,1.72-.55,1.6-1.24l-3.47-10.53-3.14-6.61c1.1.66,1.46,2.19,2.2,3.14.91,1.18,3.7,3.48,5.03,4.17,1.46.76,2.94,1.27,4.18-.13-2.11-1.27-3.71-3.28-5.52-4.78-5.21-4.31-10.89-6.34-15.26-11.97-1.08-1.39-1.4-3-2.77-4.22-1.83-1.64-3.8-2.74-5.53-4.78-5.01-5.92-6.65-15.89-14.7-18.23.27-1.15-2.59-8.11-3.14-8.09ZM530.83,173.85c.24,0,.24.37,0,.37s-.24-.37,0-.37Z"/>
        <path class="cls-2" d="M429.08,72.45c-.55-4.08-.74-8.02-1.1-12.14-.06-.65-.75-1.15-.2-2.03.11-.18,1-1.03,1.14-1.07,2.04-.58,1.46,1.24,1.62,2.37.58,4.06,1.21,8.81,1.49,12.87.15,2.21.42,5.23-2.42,3.15-.6-1.05-.39-2.12-.53-3.15Z"/>
        <path class="cls-2" d="M426.87,55.72c.66-.87.21-1.85.36-2.77.41-2.44,1.5-5.17,2.53-7.42.21-.46-.09-.62.79-.49-.07.89.49,1.46.38,2.4-.08.69-.71,1.36-.94,2-.68,1.9-1.47,3.84-1.28,5.9l-1.83.37Z"/>
        <path class="cls-2" d="M436.81,39.35c7.66-4.83,21.77-4.91,29.06.73.86.66,3.69,3.46,3.7,4.41l-.93.93c-.46-.37-.83-.95-1.29-1.28-3.45-2.46-6.71-3.83-10.85-4.6-8.63-1.61-16.52-.04-23.37,5.7-.37.31-.47.7-1.1.55l-.34-1.24c.2-1.08,4.05-4.5,5.14-5.19Z"/>
        <path class="cls-2" d="M477.66,64.74c-.03.39-.35.7-.38,1.09-.16,1.82-.11,3.65-.42,5.47-.2,1.19-1.49,3-2.89,2.82-.27-.91.29-1.69.37-2.38.42-3.44.59-6.88,1.1-10.3.06-.4-.32-2.1.54-1.66,1.74.89,1.79,3.26,1.66,4.97Z"/>
        <path class="cls-2" d="M472.51,53.32c-.46-2.23-1.39-4.31-2.56-6.25.55-.49.98-1.38,1.82-1.29.35,1.75,1.33,3.32,1.77,5.04.18.68.98,4.72.8,4.9-2.09.11-1.59-1.2-1.83-2.4Z"/>
      </g>
      <g>
        <path class="cls-1" d="M330.68,228.51c-.5.18-1.23.36-2.18.54l.13,1.75c1.52-.28,2.74-.61,3.65-.98.91-.37,1.59-.81,2.04-1.34s.68-1.18.7-1.96v-.02c.02-.74-.18-1.31-.59-1.72-.41-.41-1.02-.66-1.81-.76-.79-.1-1.74-.06-2.85.13l-8.46,1.42c-1.12.19-2.1.47-2.94.85-.84.38-1.5.85-1.99,1.41-.49.57-.77,1.23-.85,1.99v.02c-.08.79.08,1.38.48,1.77s1.05.61,1.96.67c.91.06,2.13-.03,3.67-.27l.33-1.84c-.94.14-1.65.21-2.15.2-.5,0-.86-.09-1.08-.25s-.32-.43-.28-.78v-.02c.03-.34.18-.64.43-.89.26-.25.6-.46,1.03-.64.43-.18.94-.31,1.54-.41l7.92-1.34c.59-.1,1.09-.14,1.5-.11.41.03.73.13.95.3.23.17.33.43.32.76v.02c-.01.34-.14.63-.37.87-.23.24-.6.45-1.11.63Z"/>
        <path class="cls-1" d="M335.05,230.61l-18.02,7.86,1.13,1.65,6.27-2.76.61.86c.05.07.11.13.16.2l-5.4,4.09,1.23,1.79,5.72-4.69s.04.02.05.03c.7.28,1.5.37,2.4.26.89-.1,1.9-.41,3.02-.91l1.91-.85c1.65-.74,2.7-1.54,3.18-2.41.47-.86.33-1.77-.41-2.73l-1.84-2.38ZM332.72,236.62l-1.48.66c-.82.36-1.53.53-2.12.5-.59-.03-1.06-.28-1.4-.75l-.62-.85,6.42-2.82.63.83c.35.46.4.88.15,1.29-.25.4-.77.79-1.59,1.15Z"/>
        <path class="cls-1" d="M328.31,246.98c-.3.66-.3,1.28.01,1.84.31.56.95,1.06,1.93,1.48h.02c.97.43,1.95.64,2.93.63.98,0,1.93-.21,2.85-.62.92-.4,1.79-.98,2.62-1.71l6.15-5.47c.79-.7,1.32-1.37,1.58-2,.26-.63.22-1.21-.12-1.73-.34-.52-.98-.98-1.93-1.37h-.02c-.95-.39-1.89-.58-2.82-.58-.93,0-1.84.19-2.71.56-.88.37-1.72.9-2.52,1.58l-6.23,5.33c-.85.71-1.43,1.4-1.73,2.06ZM331.71,246.79c.19-.33.5-.68.93-1.05l5.77-4.99c.41-.36.83-.64,1.26-.85.43-.21.86-.33,1.31-.36.45-.03.89.05,1.34.23h.02c.44.19.73.41.85.68.13.27.1.56-.07.87s-.47.65-.88,1.02l-5.74,5.05c-.43.38-.86.68-1.31.9-.44.22-.9.35-1.37.38s-.93-.06-1.38-.25h-.02c-.45-.2-.73-.44-.84-.71-.11-.28-.07-.58.12-.91Z"/>
        <path class="cls-1" d="M349.49,252h-.03c-.87-.04-1.41-.25-1.61-.64-.2-.39-.15-.97.15-1.75l-3.05-.05c-.66,1.53-.7,2.67-.1,3.4.6.74,1.81,1.14,3.63,1.23h.03c1.18.05,2.23-.04,3.16-.29.93-.25,1.71-.64,2.36-1.18.64-.54,1.14-1.22,1.48-2.03.28-.66.42-1.23.43-1.71,0-.48-.13-.9-.39-1.26-.26-.36-.67-.69-1.23-1l-1.68-.91c-.12-.07-.19-.11-.23-.11-.62-.36-1.03-.69-1.23-.98-.21-.3-.19-.7.03-1.2.21-.46.55-.81,1.02-1.06.47-.24,1.04-.35,1.72-.32h.03c.72.03,1.18.22,1.38.57.2.35.17.88-.11,1.6h2.93c.55-1.35.56-2.36.05-3.04-.51-.67-1.62-1.05-3.35-1.12h-.03c-1.67-.07-3.08.18-4.21.75-1.14.57-1.95,1.37-2.44,2.4-.31.67-.45,1.24-.43,1.71.03.48.19.89.5,1.22.31.34.77.66,1.38.95l1.82.99c.34.19.61.39.8.59.19.21.3.45.32.73.03.28-.04.6-.2.96-.25.57-.62.98-1.1,1.23s-1.09.37-1.81.33Z"/>
        <path class="cls-1" d="M370.49,239.11c-.92-.42-2.27-.44-4.05-.04h-.03c-1.73.39-2.99.96-3.78,1.73-.8.77-1.12,1.65-.96,2.63.1.63.32,1.14.64,1.52s.75.68,1.27.87c.52.2,1.18.33,1.98.41l2.44.32c.46.06.85.15,1.17.27s.57.28.77.51c.2.22.33.5.4.84.1.53-.01.96-.33,1.3-.32.34-.86.59-1.6.76h-.03c-.9.21-1.57.18-2.01-.08-.44-.26-.76-.75-.94-1.47l-3.11.78c.29,1.44.97,2.38,2.03,2.81,1.06.43,2.53.43,4.4,0h.03c1.21-.29,2.2-.65,2.97-1.1.77-.45,1.31-.98,1.61-1.6.3-.61.38-1.29.23-2.04-.12-.61-.33-1.11-.63-1.5-.29-.39-.68-.7-1.17-.92-.48-.22-1.09-.39-1.83-.49l-2.25-.3c-.16-.03-.26-.04-.3-.03-.84-.13-1.46-.29-1.85-.48-.39-.19-.63-.52-.71-.99-.08-.43.05-.81.37-1.14.32-.32.83-.56,1.53-.72h.03c.74-.17,1.32-.14,1.73.09.42.23.71.68.87,1.34l2.92-.76c-.29-1.25-.9-2.09-1.82-2.51Z"/>
        <polygon class="cls-1" points="373.44 237.34 383.14 247.32 385.9 245.85 381.87 241.77 386.42 239.41 384.88 237.89 380.35 240.23 377.61 237.46 382.82 234.82 381.35 233.37 373.44 237.34"/>
        <polygon class="cls-1" points="397 238.55 398.99 236.77 384.88 230.25 382.86 231.95 397 238.55"/>
        <polygon class="cls-1" points="390.43 222.93 386.49 229.1 389.13 229.57 390.52 227.35 404.7 229.83 405.78 227.92 391.69 225.49 393.01 223.37 390.43 222.93"/>
        <polygon class="cls-1" points="513.2 227.16 515.18 229.22 502.28 233.63 503.94 235.48 516.9 231.01 518.9 233.1 521.29 232.26 515.55 226.37 513.2 227.16"/>
        <path class="cls-1" d="M509.76,240.92l2.57,1.53,2.98-1.6,3.65,2.14-1.7,2.39,2.66,1.58,7.54-11.21-3.67-2.06-14.04,7.23ZM520.41,241.29l-2.99-1.74,7.07-3.85-4.08,5.59Z"/>
        <polygon class="cls-1" points="529.79 237.2 531.99 246.28 530.6 250.78 533.8 251.67 535.17 247.03 542.02 240.44 538.62 239.54 534.16 244.69 533.13 238.09 529.79 237.2"/>
        <polygon class="cls-1" points="543.13 240.31 547.33 253.96 556.75 254.08 555.98 251.82 549.88 251.74 546.25 240.35 543.13 240.31"/>
        <path class="cls-1" d="M560.43,238.51c-.96-.07-1.96.04-3,.35h-.02c-1.05.31-1.79.71-2.23,1.19-.44.49-.58,1.04-.43,1.67.16.63.57,1.32,1.26,2.06l5.33,5.77c.7.78,1.49,1.41,2.38,1.87.88.46,1.83.74,2.84.82,1.01.08,2.06-.04,3.14-.38h.02c1.08-.34,1.83-.77,2.26-1.3.42-.52.53-1.12.33-1.78-.2-.66-.67-1.37-1.41-2.14l-5.47-5.65c-.7-.73-1.47-1.3-2.31-1.73-.83-.42-1.73-.67-2.69-.75ZM568.1,247.23c.38.39.63.76.77,1.09.14.33.12.63-.05.89-.17.26-.51.47-1,.62h-.02c-.5.16-.98.2-1.46.14-.47-.06-.92-.22-1.33-.47-.41-.25-.81-.57-1.18-.97l-4.99-5.33c-.36-.38-.6-.73-.72-1.05-.12-.32-.1-.6.07-.85.17-.24.5-.44.98-.58h.02c.49-.15.96-.19,1.42-.13.46.06.9.21,1.3.44.4.24.78.54,1.14.92l5.05,5.29Z"/>
        <path class="cls-1" d="M565.72,234.73l-2.37,2.23,17.41,9.31,1.51-1.57-6.03-3.2.8-.8c.06-.06.11-.13.17-.19l7.19,1.98,1.55-1.6-7.94-1.94s0-.03,0-.05c.04-.59-.18-1.17-.67-1.73-.49-.56-1.27-1.11-2.32-1.66l-1.8-.94c-1.55-.81-2.95-1.2-4.22-1.18-1.26.02-2.36.46-3.29,1.34ZM573.35,236.84c.78.41,1.27.82,1.47,1.24s.09.84-.35,1.27l-.8.79-6.15-3.26.81-.77c.44-.42.96-.62,1.56-.62.6,0,1.29.21,2.06.61l1.41.74Z"/>
        <path class="cls-1" d="M571.95,228.9c.07-.42.35-.68.85-.78.5-.09,1.26-.03,2.27.19l.08-1.71c-1.91-.43-3.35-.52-4.33-.28-.99.24-1.57.87-1.74,1.89v.02c-.17,1,.14,1.86.94,2.59.8.73,1.94,1.28,3.43,1.64.96.23,1.78.35,2.46.37.68.01,1.27-.06,1.76-.23.49-.16.94-.42,1.37-.77l1.41-1.02c.27-.19.55-.34.83-.43.29-.1.62-.14,1.01-.14.39,0,.83.07,1.32.18.77.18,1.33.43,1.68.73.35.3.5.66.46,1.09v.02c-.05.51-.35.82-.88.92s-1.34.03-2.42-.2l-.09,1.83c2.14.48,3.71.57,4.71.24,1-.32,1.55-1.02,1.64-2.09v-.02c.06-.69-.07-1.31-.41-1.87-.33-.55-.87-1.04-1.6-1.45-.73-.41-1.64-.74-2.74-1-.89-.21-1.67-.34-2.33-.37-.66-.04-1.24,0-1.74.13-.5.13-.97.34-1.41.64l-1.31.93c-.1.06-.16.11-.16.13-.52.34-.99.56-1.42.67-.43.1-1,.07-1.71-.1-.66-.16-1.15-.39-1.5-.69-.34-.3-.48-.65-.41-1.06v-.02Z"/>
        <path class="cls-2" d="M359.28,232.59c9.49,0,18.65-5.06,20.37-11.05,1.65-5.71-4.15-10.16-12.88-10.16s-17.67,4.44-20.06,10.16c-2.5,5.98,3.07,11.05,12.57,11.05ZM363.76,219.9c1.41,0,2.31.73,2,1.65s-1.73,1.67-3.17,1.67-2.32-.75-1.99-1.67,1.74-1.65,3.16-1.65Z"/>
        <path class="cls-2" d="M308.81,224.37c-11.65,20.71,5.08,40.14,39.19,40.14s64.57-19.43,67.56-40.14c.08-.54.13-1.08.17-1.61-4.22,19.57-33.55,37.47-66.22,37.47s-49.35-17.9-39.74-37.47c-.34.53-.66,1.07-.97,1.61Z"/>
        <path class="cls-2" d="M544.88,232.59c9.49,0,15.08-5.06,12.59-11.05-2.38-5.71-11.31-10.16-20.04-10.16s-14.54,4.44-12.9,10.16c1.71,5.98,10.85,11.05,20.35,11.05ZM540.42,219.9c1.41,0,2.83.73,3.16,1.65.33.92-.56,1.67-1.99,1.67s-2.85-.75-3.16-1.67.59-1.65,2-1.65Z"/>
        <path class="cls-2" d="M488.61,224.37c2.94,20.71,33.35,40.14,67.47,40.14s50.89-19.43,39.28-40.14c-.3-.54-.63-1.08-.97-1.61,9.56,19.57-7.16,37.47-39.82,37.47s-61.95-17.9-66.13-37.47c.04.53.09,1.07.17,1.61Z"/>
        <path class="cls-2" d="M344.87,216.49c1.85-1.68,4.12-3.17,6.65-4.4l-.95-.79c-2.74,1.33-5.2,2.93-7.21,4.74l1.51.44Z"/>
        <path class="cls-2" d="M387.1,216.13c-.71-1.79-1.99-3.39-3.74-4.71l-1.51.79c1.61,1.23,2.79,2.71,3.43,4.37l1.83-.44Z"/>
        <path class="cls-2" d="M348.85,209.87c-3.12,1.5-5.93,3.32-8.24,5.37l1.5.44c2.15-1.92,4.77-3.62,7.68-5.03l-.94-.78Z"/>
        <path class="cls-2" d="M384.61,210.76c1.87,1.4,3.24,3.1,4.01,5l1.81-.44c-.83-2.04-2.32-3.84-4.33-5.34l-1.49.78Z"/>
        <path class="cls-2" d="M387.33,209.33c2.13,1.57,3.71,3.48,4.6,5.62l1.8-.44c-.97-2.28-2.66-4.29-4.93-5.96l-1.47.77Z"/>
        <path class="cls-2" d="M337.87,214.43l1.49.44c2.45-2.16,5.42-4.07,8.71-5.65l-.93-.77c-3.5,1.67-6.66,3.69-9.27,5.98Z"/>
        <path class="cls-2" d="M390.03,207.91c2.39,1.74,4.18,3.85,5.2,6.23l1.79-.44c-1.1-2.51-3-4.73-5.54-6.56l-1.46.76Z"/>
        <path class="cls-2" d="M335.15,213.63l1.48.44c2.75-2.4,6.07-4.52,9.74-6.26l-.92-.76c-3.88,1.83-7.39,4.06-10.31,6.59Z"/>
        <path class="cls-2" d="M392.69,206.52c2.65,1.9,4.65,4.22,5.82,6.83l1.78-.43c-1.25-2.74-3.36-5.16-6.16-7.15l-1.44.76Z"/>
        <path class="cls-2" d="M332.44,212.83l1.47.43c3.05-2.63,6.73-4.95,10.78-6.86l-.91-.75c-4.25,1.99-8.12,4.42-11.34,7.18Z"/>
        <path class="cls-2" d="M329.76,212.04l1.46.43c3.36-2.86,7.39-5.38,11.81-7.44l-.9-.75c-4.63,2.15-8.85,4.77-12.38,7.76Z"/>
        <path class="cls-2" d="M395.33,205.14c2.92,2.06,5.13,4.57,6.44,7.42l1.77-.43c-1.39-2.97-3.72-5.58-6.79-7.73l-1.42.75Z"/>
        <path class="cls-2" d="M397.93,203.77c3.18,2.22,5.61,4.92,7.07,8l1.76-.43c-1.55-3.19-4.09-6-7.42-8.31l-1.41.74Z"/>
        <path class="cls-2" d="M327.09,211.26l1.45.43c3.67-3.09,8.05-5.8,12.85-8.02l-.89-.74c-5,2.31-9.58,5.12-13.42,8.33Z"/>
        <path class="cls-2" d="M400.5,202.42c3.45,2.37,6.1,5.27,7.72,8.56l1.74-.43c-1.7-3.41-4.47-6.41-8.07-8.87l-1.39.73Z"/>
        <path class="cls-2" d="M324.44,210.48l1.44.42c3.98-3.31,8.72-6.21,13.89-8.59l-.88-.73c-5.38,2.46-10.31,5.46-14.46,8.89Z"/>
        <path class="cls-2" d="M321.8,209.7l1.43.42c4.3-3.53,9.39-6.62,14.93-9.14l-.87-.72c-5.75,2.6-11.03,5.79-15.5,9.44Z"/>
        <path class="cls-2" d="M413.14,209.78c-1.87-3.63-4.86-6.81-8.72-9.42l-1.37.72c3.72,2.52,6.59,5.6,8.37,9.12l1.73-.42Z"/>
        <path class="cls-2" d="M516.75,216.05l1.82.44c.67-1.68,1.9-3.17,3.56-4.4l-1.51-.79c-1.81,1.33-3.14,2.93-3.88,4.74Z"/>
        <path class="cls-2" d="M560.54,216.13c-1.97-1.79-4.37-3.39-7.05-4.71l-.95.79c2.47,1.23,4.69,2.71,6.49,4.37l1.51-.44Z"/>
        <path class="cls-2" d="M517.89,209.87c-2.07,1.5-3.6,3.32-4.47,5.37l1.81.44c.8-1.92,2.22-3.62,4.15-5.03l-1.49-.78Z"/>
        <path class="cls-2" d="M554.28,210.76c2.85,1.4,5.42,3.1,7.52,5l1.5-.44c-2.26-2.04-5.02-3.84-8.08-5.34l-.94.78Z"/>
        <path class="cls-2" d="M510.12,214.43l1.8.44c.93-2.16,2.56-4.07,4.74-5.65l-1.47-.77c-2.33,1.67-4.07,3.69-5.07,5.98Z"/>
        <path class="cls-2" d="M556,209.33c3.23,1.57,6.15,3.48,8.55,5.62l1.49-.44c-2.56-2.28-5.67-4.29-9.11-5.96l-.93.77Z"/>
        <path class="cls-2" d="M506.83,213.63l1.79.44c1.06-2.4,2.9-4.52,5.35-6.26l-1.45-.76c-2.59,1.83-4.54,4.06-5.68,6.59Z"/>
        <path class="cls-2" d="M557.7,207.91c3.61,1.74,6.88,3.85,9.58,6.23l1.48-.44c-2.87-2.51-6.32-4.73-10.14-6.56l-.92.76Z"/>
        <path class="cls-2" d="M503.57,212.83l1.78.43c1.2-2.63,3.25-4.95,5.96-6.86l-1.44-.75c-2.85,1.99-5.02,4.42-6.3,7.18Z"/>
        <path class="cls-2" d="M559.39,206.52c3.99,1.9,7.61,4.22,10.62,6.83l1.47-.43c-3.17-2.74-6.98-5.16-11.18-7.15l-.91.76Z"/>
        <path class="cls-2" d="M500.33,212.04l1.76.43c1.35-2.86,3.61-5.38,6.59-7.44l-1.42-.75c-3.12,2.15-5.5,4.77-6.93,7.76Z"/>
        <path class="cls-2" d="M561.05,205.14c4.37,2.06,8.34,4.57,11.65,7.42l1.46-.43c-3.48-2.97-7.64-5.58-12.22-7.73l-.9.75Z"/>
        <path class="cls-2" d="M497.11,211.26l1.75.43c1.5-3.09,3.98-5.8,7.22-8.02l-1.4-.74c-3.38,2.31-5.98,5.12-7.57,8.33Z"/>
        <path class="cls-2" d="M562.69,203.77c4.74,2.22,9.07,4.92,12.69,8l1.46-.43c-3.79-3.19-8.31-6-13.26-8.31l-.89.74Z"/>
        <path class="cls-2" d="M493.91,210.48l1.74.42c1.66-3.31,4.36-6.21,7.86-8.59l-1.39-.73c-3.65,2.46-6.47,5.46-8.22,8.89Z"/>
        <path class="cls-2" d="M564.32,202.42c5.12,2.37,9.8,5.27,13.73,8.56l1.45-.43c-4.1-3.41-8.98-6.41-14.3-8.87l-.88.73Z"/>
        <path class="cls-2" d="M490.74,209.7l1.73.42c1.82-3.53,4.74-6.62,8.52-9.14l-1.37-.72c-3.92,2.6-6.97,5.79-8.87,9.44Z"/>
        <path class="cls-2" d="M565.92,201.09c5.49,2.52,10.52,5.6,14.77,9.12l1.44-.42c-4.42-3.63-9.65-6.81-15.34-9.42l-.87.72Z"/>
        <path class="cls-2" d="M311.48,268.57s51.27,8.83,140.82,8.83,137.82-8.83,137.82-8.83h-278.64Z"/>
        <path class="cls-2" d="M291.79,276.37c6.99,2.15,12.9-.44,12.9-.44l-19.03-5.76s-.77,4.09,6.13,6.21Z"/>
        <path class="cls-2" d="M610.7,276.37c6.92-2.12,6.19-6.21,6.19-6.21l-19.08,5.76s5.88,2.59,12.9.44Z"/>
        <path class="cls-2" d="M462.81,257.28h16.95l-6.08-63.93h-13.19l2.32,63.93ZM475.17,254.65h-8.14l-.97-18.98h7.6l1.52,18.98ZM473.4,232.56h-7.51l-.61-11.85h7.18l.95,11.85ZM463.59,211.53s0-.06.01-.09c0-.06-.02-.12-.02-.18-.05-1.1.94-2.04,2.41-2.48-1.51-.45-2.58-1.37-2.63-2.43l-.08-1.74s0-.06.01-.09c0-.06-.02-.11-.02-.17-.05-1.04.91-1.92,2.34-2.34-1.47-.42-2.51-1.29-2.56-2.3l-.08-1.64s0-.05.01-.08c0-.05-.02-.11-.02-.16-.06-1.37,1.79-2.47,4.13-2.47s4.33,1.1,4.45,2.47c0,.05,0,.11,0,.16,0,.03.02.05.02.08l.14,1.64c.08,1-.84,1.88-2.26,2.3,1.48.42,2.56,1.31,2.65,2.34,0,.06,0,.11,0,.17,0,.03.02.06.02.09l.15,1.74c.09,1.06-.86,1.99-2.32,2.43,1.53.45,2.64,1.39,2.73,2.48,0,.06,0,.12,0,.18,0,.03.02.06.02.09l.15,1.84c.13,1.58-1.84,2.88-4.39,2.88s-4.69-1.3-4.76-2.88l-.09-1.84Z"/>
        <path class="cls-2" d="M424.48,257.28h16.95l2.43-63.93h-13.19l-6.19,63.93ZM433.89,195.61h6.46l-.51,9.56h-6.73l.78-9.56ZM432.91,207.66h6.8l-.8,15.09h-7.23l1.23-15.09ZM428.24,247.75s.02-.08.03-.12c0-.08,0-.16,0-.24.13-1.45,1.42-2.69,3.18-3.28-1.66-.59-2.74-1.8-2.62-3.2l.2-2.28s.02-.07.03-.11c0-.07,0-.15,0-.22.12-1.35,1.36-2.51,3.07-3.07-1.61-.55-2.65-1.69-2.54-3l.18-2.13s.02-.07.02-.1c0-.07,0-.14,0-.21.15-1.78,2.44-3.2,5.1-3.2s4.75,1.43,4.67,3.2c0,.07-.02.14-.03.21,0,.04.01.07.01.1l-.1,2.13c-.06,1.31-1.26,2.45-2.95,3,1.63.55,2.72,1.71,2.65,3.07,0,.07-.02.15-.03.22,0,.04.01.07.01.11l-.11,2.28c-.07,1.4-1.31,2.61-3.05,3.2,1.68.59,2.8,1.83,2.73,3.28,0,.08-.02.16-.03.24,0,.04.01.08.01.12l-.12,2.43c-.1,2.09-2.58,3.82-5.53,3.82s-5.19-1.73-5.01-3.82l.21-2.43Z"/>
        <path class="cls-2" d="M443.6,257.28h17.05l-1.84-63.93h-13.26l-1.95,63.93ZM447.26,199.61h2.46l.05-4.14h5.11l.05,4.14h2.38l.16,7.71h-2.46l.14,12.88h-5.67l.15-12.88h-2.54l.17-7.71ZM446.42,237.53h2.86l.17-14.85h5.72l.16,14.85h2.77l.22,10.51h-2.88l.07,6.61h-6.44l.08-6.61h-2.97l.23-10.51Z"/>
        <polygon class="cls-1" points="471.75 237.04 468.14 237.04 469.08 253.1 472.91 253.1 471.75 237.04"/>
        <polygon class="cls-1" points="470.65 221.93 467.25 221.93 467.8 231.24 471.33 231.24 470.65 221.93"/>
        <polygon class="cls-1" points="433.68 221.52 437.08 221.52 437.85 208.76 434.62 208.76 433.68 221.52"/>
        <polygon class="cls-1" points="434.97 204.11 438.13 204.11 438.59 196.6 435.52 196.6 434.97 204.11"/>
        <polygon class="cls-1" points="451.23 253.1 453.37 253.1 453.35 248.04 451.25 248.04 451.23 253.1"/>
        <polygon class="cls-1" points="453.27 223.91 451.35 223.91 451.3 237.53 453.31 237.53 453.27 223.91"/>
        <polygon class="cls-1" points="456.15 242.64 448.36 242.64 448.3 246.56 456.21 246.56 456.15 242.64"/>
        <polygon class="cls-1" points="456.1 238.91 448.42 238.91 448.38 241.22 456.13 241.22 456.1 238.91"/>
        <polygon class="cls-1" points="451.37 219 453.25 219 453.21 207.32 451.42 207.32 451.37 219"/>
        <polygon class="cls-1" points="453.17 196.46 451.46 196.46 451.45 199.61 453.18 199.61 453.17 196.46"/>
        <polygon class="cls-1" points="455.61 203.38 448.94 203.38 448.89 206.24 455.65 206.24 455.61 203.38"/>
        <polygon class="cls-1" points="455.57 200.63 448.98 200.63 448.95 202.33 455.6 202.33 455.57 200.63"/>
        <path class="cls-1" d="M320.38,197.4c2.05,0,4.24-.96,4.9-2.13s-.45-2.09-2.46-2.09-4.19.93-4.88,2.09.39,2.13,2.44,2.13Z"/>
        <path class="cls-1" d="M580.72,193.17c-2.01,0-3.12.93-2.47,2.09s2.85,2.13,4.89,2.13,3.14-.96,2.45-2.13c-.68-1.16-2.86-2.09-4.87-2.09Z"/>
        <path class="cls-1" d="M434.54,231.75c1.63,0,3-.88,3.06-1.95s-1.19-1.93-2.79-1.93-2.97.86-3.05,1.93c-.09,1.08,1.16,1.95,2.79,1.95Z"/>
        <path class="cls-1" d="M433.96,240.39c1.68,0,3.1-.94,3.16-2.08s-1.23-2.05-2.88-2.05-3.07.92-3.16,2.05,1.2,2.08,2.88,2.08Z"/>
        <path class="cls-1" d="M433.33,249.62c1.74,0,3.2-1,3.27-2.23s-1.26-2.19-2.97-2.19-3.17.98-3.27,2.19,1.23,2.23,2.97,2.23Z"/>
        <path class="cls-1" d="M467.77,205.94c1.47,0,2.6-.71,2.53-1.59s-1.29-1.57-2.74-1.57-2.58.7-2.54,1.57,1.27,1.59,2.74,1.59Z"/>
        <path class="cls-1" d="M468.23,212.94c1.51,0,2.68-.76,2.61-1.69s-1.33-1.66-2.82-1.66-2.66.74-2.61,1.66,1.32,1.69,2.83,1.69Z"/>
        <path class="cls-1" d="M293.02,244.11c-2.46,0-5.3,1.41-6.34,3.16-1.06,1.78.12,3.23,2.64,3.23s5.39-1.46,6.39-3.23c.99-1.75-.22-3.16-2.68-3.16Z"/>
        <path class="cls-1" d="M611.62,244.11c-2.46,0-3.67,1.41-2.68,3.16s3.86,3.23,6.39,3.23,3.7-1.46,2.64-3.23-3.88-3.16-6.34-3.16Z"/>
        <path class="cls-1" d="M467.34,199.37c1.43,0,2.53-.69,2.46-1.55s-1.26-1.52-2.66-1.52-2.51.68-2.46,1.52,1.24,1.55,2.66,1.55Z"/>
      </g>
      <g>
        <path class="cls-2" d="M321.8,190.56c-2.68,0-5.61,1.23-6.55,2.77l-39.36,64.36c-1.58,2.59-.01,4.73,3.54,4.73h38.65c-18.23-8.18-24.17-23.75-14.76-39.75,8.54-14.53,27.86-25.81,48.52-30.66l.24-1.44h-30.28ZM297.8,247.27c-.13.23-.28.45-.45.68-.05.19-.13.38-.24.57l-3.58,6.44c-1.53,2.75-5.89,5.03-9.7,5.03s-5.54-2.28-3.88-5.03l3.89-6.44c.12-.2.26-.39.42-.57.09-.22.19-.45.33-.68,1.54-2.56,5.69-4.6,9.27-4.6s5.36,2.04,3.94,4.6ZM326.84,195.49s-.02.07-.04.11l-1.29,2.33c-.98,1.76-4.25,3.21-7.29,3.21s-4.64-1.45-3.58-3.21l1.4-2.33s.06-.08.09-.11c.04-.08.07-.15.12-.23,1.02-1.69,4.21-3.05,7.14-3.05s4.55,1.36,3.61,3.05c-.04.08-.09.15-.15.23Z"/>
        <path class="cls-2" d="M481.92,222.66c-1.75-15.01,10.44-26.54,28.63-31.12l.49-.98h-118.23l-.12.73c18.74,4.39,31.38,16.08,29.57,31.36-1.9,16-18.85,31.57-42.85,39.75h145.28c-23.99-8.18-40.9-23.75-42.77-39.75ZM422.14,258.88l6.94-66.49h46.19l6.82,66.49h-59.95Z"/>
        <path class="cls-2" d="M628.85,257.69l-39.36-64.36c-.94-1.54-3.87-2.77-6.55-2.77h-33.86l.55.82c21.68,4.46,42.33,16.1,51.23,31.28,9.37,16,3.4,31.57-14.85,39.75h39.3c3.55,0,5.13-2.13,3.54-4.73ZM585.29,201.15c-3.04,0-6.31-1.45-7.27-3.21l-1.28-2.33s-.03-.08-.04-.11c-.05-.08-.1-.15-.14-.23-.93-1.69.7-3.05,3.62-3.05s6.11,1.36,7.12,3.05c.05.08.08.15.12.23.03.04.06.07.09.11l1.39,2.33c1.05,1.76-.56,3.21-3.6,3.21ZM620.82,259.99c-3.81,0-8.17-2.28-9.7-5.03l-3.58-6.44c-.11-.2-.19-.39-.24-.57-.17-.22-.32-.45-.45-.68-1.42-2.56.36-4.6,3.94-4.6s7.73,2.04,9.27,4.6c.14.23.24.45.33.68.16.19.3.38.42.57l3.88,6.44c1.66,2.75-.07,5.03-3.88,5.03Z"/>
      </g>
    </g>
  </g>
</svg>