<?xml version="1.0" encoding="UTF-8"?>
<svg id="Layer_1" xmlns="http://www.w3.org/2000/svg" version="1.1" viewBox="0 0 48 46">
  <!-- Generator: Adobe Illustrator 30.1.0, SVG Export Plug-In . SVG Version: 2.1.1 Build 136)  -->
  <defs>
    <style>
      .st0 {
        fill: #647f44;
      }
    </style>
  </defs>
  <path class="st0" d="M15.1,20.7h-3.9c-.2,0-.3.2-.3.3v11.8c0,.2.2.3.3.3h6.5c.2,0,.3-.2.3-.3v-3.9c0-.2-.2-.3-.3-.3h-2.1c-.1,0-.2,0-.2-.2v-7.4c0-.2-.2-.3-.3-.3Z"/>
  <path class="st0" d="M36.2,27.2l-3.9-1c-.1,0-.2,0-.3,0,0,0-.1.2-.1.3v1.9c0,0,0,.1,0,.1,0,0,0,0-.1,0h-5.6c-.1,0-.2,0-.2-.2v-10.9c0-.1,0-.2.2-.2h13.5c.1,0,.2,0,.2.2v4.6c0,.1,0,.2.1.3,0,0,.2,0,.3,0l3.9-1c.1,0,.3-.2.3-.3v-8c0-.2-.2-.3-.3-.3H15.6c-.1,0-.2,0-.2-.2v-5.6c0-.1,0-.2.2-.2h16.2c.1,0,.2,0,.2.2v1.9c0,.1,0,.2.1.3s.2,0,.3,0l3.9-1c.1,0,.3-.2.3-.3V2.6c0-.2-.2-.3-.3-.3H11.2c-.2,0-.3.2-.3.3v10c0,.1,0,.2-.2.2H3.3c-.2,0-.3.2-.3.3v8c0,.2.1.3.3.3l3.9,1c.1,0,.2,0,.3,0,0,0,.1-.2.1-.3v-4.6c0-.1,0-.2.2-.2h13.6c.1,0,.2,0,.2.2v21.5c0,.1,0,.2-.2.2h-3.9c-.2,0-.3.1-.3.3l-1,3.9c0,.1,0,.2,0,.3,0,0,.2.1.3.1h14.8c.1,0,.2,0,.3-.1,0,0,0-.2,0-.3l-1-3.9c0-.1-.2-.3-.3-.3h-3.9c-.1,0-.2,0-.2-.2v-5.6c0-.1,0-.2.2-.2h10c0,0,.2,0,.2,0,0,0,0-.1,0-.2v-5.4c0-.2-.1-.3-.3-.3Z"/>
</svg>