<?xml version="1.0" encoding="UTF-8"?>
<svg id="Layer_2" data-name="Layer 2" xmlns="http://www.w3.org/2000/svg" width="112.2" height="77.68" viewBox="0 0 112.2 77.68">
  <defs>
    <style>
      .cls-1 {
        fill: #fff;
      }
    </style>
  </defs>
  <g id="Layer_2-2" data-name="Layer 2">
    <path class="cls-1" d="M44.76,51.28s.11.06.18.06h2.65c.08,0,.14-.02.18-.06.04-.04.07-.1.07-.17v-3.56c0-.06,0-.1.02-.12l2.38-6.63c.02-.08.02-.15-.02-.19-.03-.05-.1-.07-.18-.07h-2.78c-.16,0-.25.07-.28.2l-.62,3.05s-.03.06-.07.06-.06-.02-.07-.06l-.62-3.05c-.03-.13-.13-.2-.28-.2h-2.78c-.15,0-.22.06-.22.17,0,.04,0,.07.02.09l2.35,6.63s.02.06.02.12v3.56c0,.07.02.13.07.17Z"/>
    <path class="cls-1" d="M85.84,34.54c.09.04.19.05.29.05.21,0,.4-.08.54-.22.07-.07.13-.15.17-.24.04-.09.05-.19.05-.3,0-.2-.08-.4-.22-.54-.04-.04-.08-.07-.11-.1-.05-.02-.08-.05-.14-.07-.05-.01-.09-.03-.14-.05-.25-.05-.51.04-.69.22-.08.07-.13.15-.17.24s-.06.19-.06.29c0,.21.08.4.23.54.07.08.15.13.25.17Z"/>
    <path class="cls-1" d="M35.67,27.3h0c-.37.21-.5.67-.3,1.04.14.25.4.39.67.39.13,0,.25-.03.37-.1.37-.21.5-.67.3-1.04-.21-.37-.67-.5-1.04-.3Z"/>
    <path class="cls-1" d="M50.68,30.49c-.54,0-.98.16-1.3.47-.32.32-.48.74-.48,1.26v2.54c0,.53.16.96.48,1.27s.75.47,1.3.47.97-.16,1.3-.47c.33-.31.49-.74.49-1.27v-2.54c0-.53-.16-.95-.49-1.26-.33-.32-.76-.47-1.3-.47ZM51.07,34.82c0,.15-.04.27-.11.36-.07.09-.17.13-.29.13s-.22-.04-.29-.13c-.07-.09-.1-.21-.1-.36v-2.65c0-.15.03-.27.1-.36.07-.09.16-.13.29-.13s.22.04.29.13c.07.09.11.21.11.36v2.65Z"/>
    <path class="cls-1" d="M28.25,18.76c0-1.6-1.3-2.9-2.9-2.9s-2.9,1.3-2.9,2.9,1.3,2.9,2.9,2.9,2.9-1.3,2.9-2.9ZM23.21,18.76c0-1.18.96-2.14,2.14-2.14s2.14.96,2.14,2.14-.96,2.14-2.14,2.14-2.14-.96-2.14-2.14Z"/>
    <path class="cls-1" d="M30.62,30.25h0c-.36.23-.47.7-.24,1.06.14.23.4.36.65.36.14,0,.28-.04.41-.12.36-.22.47-.7.24-1.06-.22-.36-.7-.47-1.06-.24Z"/>
    <path class="cls-1" d="M70.16,31.75h1s.04.01.04.04v4.55s0,.05.03.07.04.03.07.03h1.19s.05,0,.07-.03c.02-.02.03-.04.03-.07v-4.55s.01-.04.04-.04h1.04s.05,0,.07-.03c.02-.02.03-.04.03-.07v-.99s0-.05-.03-.07c-.02-.02-.04-.03-.07-.03h-3.52s-.05,0-.07.03c-.02.02-.03.04-.03.07v.99s0,.05.03.07c.02.02.04.03.07.03Z"/>
    <path class="cls-1" d="M35.22,40.53c-.16,0-.25.07-.28.2l-2.38,10.4c-.03.17.04.25.22.25h2.63c.17,0,.26-.07.27-.22l.17-1.16s.01-.04.03-.06c.02-.02.05-.03.08-.03h1.48s.06.01.08.03c.02.02.03.04.03.06l.18,1.16c.01.15.1.22.27.22h2.7c.16,0,.23-.06.23-.19v-.06l-2.38-10.4c-.03-.13-.13-.2-.28-.2h-3.05ZM37.09,47.67h-.79c-.06,0-.08-.03-.08-.09l.4-2.79s.03-.06.05-.06.04.02.05.06l.45,2.79c.02.06,0,.09-.08.09Z"/>
    <path class="cls-1" d="M50.72,18.5h0c-.38.19-.53.65-.34,1.03.13.27.41.42.69.42.12,0,.23-.03.34-.08.38-.19.53-.65.34-1.03-.19-.38-.65-.53-1.03-.34Z"/>
    <path class="cls-1" d="M45.65,21.46h0c-.36.23-.47.7-.24,1.06.14.23.4.36.65.36.14,0,.28-.04.41-.12.36-.22.47-.7.24-1.06-.22-.36-.7-.47-1.06-.24Z"/>
    <path class="cls-1" d="M56.07,40.59s-.11-.06-.18-.06h-2.65c-.08,0-.14.02-.18.06-.04.04-.07.1-.07.17v10.38c0,.07.02.13.07.17.05.04.11.06.18.06h6.27c.08,0,.14-.02.18-.06.04-.04.07-.1.07-.17v-2.03c0-.07-.02-.13-.07-.17-.04-.04-.11-.06-.18-.06h-3.27c-.07,0-.1-.03-.1-.09v-8.02c0-.07-.02-.13-.07-.17Z"/>
    <path class="cls-1" d="M40.68,24.37h0c-.37.21-.5.67-.29,1.04.14.25.4.39.67.39.13,0,.26-.03.37-.1.37-.21.5-.67.3-1.04-.21-.37-.67-.5-1.04-.3Z"/>
    <path class="cls-1" d="M67.72,36.44h1.19s.05,0,.07-.03c.02-.02.03-.04.03-.07v-5.68s0-.05-.03-.07c-.02-.02-.04-.03-.07-.03h-1.19s-.05,0-.07.03c-.02.02-.03.04-.03.07v5.68s0,.05.03.07.04.03.07.03Z"/>
    <path class="cls-1" d="M40.4,65.16c-.22.36-.12.83.24,1.06h0c.13.08.27.12.4.12.26,0,.5-.13.65-.36.22-.36.11-.83-.25-1.06-.36-.23-.83-.12-1.06.24Z"/>
    <path class="cls-1" d="M47.05,33.87s0-.02,0-.03c0,0,.01-.02.03-.02.21-.15.37-.35.48-.6.11-.25.17-.53.17-.84,0-.35-.07-.67-.21-.95-.14-.28-.33-.49-.58-.65-.25-.15-.54-.23-.87-.23h-1.81s-.05,0-.07.03c-.02.02-.03.04-.03.07v5.68s0,.05.03.07c.02.02.04.03.07.03h1.19s.05,0,.07-.03c.02-.02.03-.04.03-.07v-2.2s.01-.04.04-.04h.13s.04.01.04.03l.57,2.23c.02.06.06.08.12.08h1.23c.06,0,.09-.03.09-.08v-.03s-.73-2.44-.73-2.44ZM46.2,32.86c-.09.11-.21.17-.36.17h-.23s-.04-.01-.04-.04v-1.19s.01-.04.04-.04h.23c.15,0,.27.06.36.17.09.11.13.27.13.48,0,.2-.04.35-.13.46Z"/>
    <path class="cls-1" d="M35.39,62.23c-.22.36-.12.83.24,1.06h0c.13.08.27.12.4.12.26,0,.5-.13.65-.36.22-.36.11-.83-.25-1.06-.36-.23-.83-.12-1.06.24Z"/>
    <path class="cls-1" d="M58.86,33.53c.18.16.41.34.69.54.3.22.5.38.6.48.1.1.15.22.15.35,0,.12-.03.21-.1.29-.06.08-.15.11-.25.11s-.18-.04-.25-.12c-.06-.08-.1-.19-.1-.32v-.19s0-.05-.03-.07c-.02-.02-.04-.03-.07-.03h-1.18s-.05,0-.07.03c-.02.02-.03.04-.03.07v.26c0,.3.07.57.21.81.14.24.34.42.6.55.26.13.56.2.9.2.52,0,.93-.15,1.25-.45.32-.3.47-.7.47-1.2,0-.27-.05-.5-.15-.7-.1-.2-.24-.38-.42-.54-.18-.16-.45-.37-.8-.64-.29-.21-.49-.37-.58-.49-.1-.11-.14-.24-.14-.38,0-.13.03-.23.09-.31.06-.08.14-.12.24-.12s.19.04.25.12c.07.08.1.18.1.3v.23s0,.05.03.07.04.03.07.03h1.17s.05,0,.07-.03c.02-.02.03-.04.03-.07v-.2c0-.32-.07-.61-.21-.86-.14-.25-.34-.44-.61-.58-.26-.14-.56-.21-.9-.21s-.63.07-.89.2c-.26.13-.46.33-.6.57-.14.25-.21.53-.21.85s.06.59.19.83c.13.24.28.44.46.6Z"/>
    <path class="cls-1" d="M54.45,30.69c-.26.13-.46.33-.6.57s-.21.53-.21.85.06.59.19.83c.13.24.28.44.46.6.18.16.41.34.69.54.3.22.5.38.6.48.1.1.15.22.15.35,0,.12-.03.21-.1.29-.06.08-.15.11-.25.11s-.18-.04-.25-.12c-.06-.08-.1-.19-.1-.32v-.19s0-.05-.03-.07c-.02-.02-.04-.03-.07-.03h-1.18s-.05,0-.07.03c-.02.02-.03.04-.03.07v.26c0,.3.07.57.21.81.14.24.34.42.6.55.26.13.56.2.9.2.52,0,.93-.15,1.25-.45.32-.3.47-.7.47-1.2,0-.27-.05-.5-.15-.7-.1-.2-.24-.38-.42-.54-.18-.16-.45-.37-.8-.64-.29-.21-.48-.37-.58-.49-.1-.11-.14-.24-.14-.38,0-.13.03-.23.09-.31.06-.08.14-.12.24-.12s.19.04.25.12c.07.08.1.18.1.3v.23s0,.05.03.07c.02.02.04.03.07.03h1.17s.05,0,.07-.03c.02-.02.03-.04.03-.07v-.2c0-.32-.07-.61-.21-.86-.14-.25-.34-.44-.6-.58-.26-.14-.56-.21-.9-.21s-.63.07-.89.2Z"/>
    <path class="cls-1" d="M30.36,59.33c-.21.37-.07.84.3,1.04h0c.12.07.24.1.37.1.27,0,.53-.14.67-.4.21-.37.07-.84-.3-1.04-.37-.21-.84-.07-1.04.3Z"/>
    <path class="cls-1" d="M26.56,33.29s-.07-.07-.12-.1c-.04-.02-.08-.05-.13-.07-.05-.01-.09-.03-.15-.04-.25-.05-.51.03-.69.21-.07.07-.13.15-.17.24-.04.1-.05.19-.05.29,0,.21.08.4.22.54.07.07.15.13.25.17.09.04.19.05.3.05.1,0,.2-.01.29-.05.09-.04.18-.1.25-.17.15-.15.23-.34.23-.54,0-.1-.02-.19-.06-.29-.04-.09-.09-.18-.17-.24Z"/>
    <path class="cls-1" d="M45.39,68.12c-.21.37-.07.84.3,1.04h0c.12.07.24.1.37.1.27,0,.53-.14.67-.4.21-.37.07-.84-.3-1.04-.37-.21-.84-.07-1.04.3Z"/>
    <path class="cls-1" d="M25.88,51.31s.11.07.2.07h2.81c.08,0,.15-.02.2-.07.05-.04.07-.1.07-.18v-8.51c0-.07.04-.1.11-.1h2.1c.08,0,.15-.02.2-.07.05-.04.07-.1.07-.18v-2.15c0-.08-.02-.14-.07-.18-.05-.04-.11-.07-.2-.07h-7.69c-.08,0-.15.02-.2.07-.05.04-.07.1-.07.18v2.15c0,.08.02.14.07.18.05.04.11.07.2.07h2.04c.07,0,.11.03.11.1v8.51c0,.08.02.14.07.18Z"/>
    <path class="cls-1" d="M14.63,47.54c.74,0,1.49-.28,2.05-.85s.85-1.28.85-2.05-.3-1.5-.85-2.05c-1.13-1.13-2.97-1.13-4.1,0-.55.55-.85,1.28-.85,2.05s.3,1.5.85,2.05,1.31.85,2.05.85ZM13.12,43.13c.42-.42.96-.62,1.51-.62s1.09.21,1.51.62c.4.4.63.94.63,1.51s-.22,1.11-.63,1.51c-.83.83-2.19.83-3.02,0-.4-.4-.63-.94-.63-1.51s.22-1.11.63-1.51Z"/>
    <path class="cls-1" d="M14.63,26.1c.78,0,1.5-.3,2.05-.85.55-.55.85-1.28.85-2.05s-.3-1.5-.85-2.05c-1.1-1.1-3.01-1.1-4.1,0-.55.55-.85,1.28-.85,2.05s.3,1.5.85,2.05c.55.55,1.28.85,2.05.85ZM13.12,21.69c.4-.4.94-.63,1.51-.63s1.11.22,1.51.63.63.94.63,1.51-.22,1.11-.63,1.51c-.81.81-2.21.81-3.02,0-.4-.4-.63-.94-.63-1.51s.22-1.11.63-1.51Z"/>
    <path class="cls-1" d="M7.29,33.92c0,1.6,1.3,2.9,2.9,2.9s2.9-1.3,2.9-2.9-1.3-2.9-2.9-2.9-2.9,1.3-2.9,2.9ZM12.33,33.92c0,1.18-.96,2.14-2.14,2.14s-2.14-.96-2.14-2.14.96-2.14,2.14-2.14,2.14.96,2.14,2.14Z"/>
    <path class="cls-1" d="M66.1,69.26c.14,0,.28-.04.41-.12h0c.36-.23.47-.7.24-1.06-.22-.36-.7-.47-1.06-.24-.36.22-.47.7-.24,1.06.15.23.4.36.65.36Z"/>
    <path class="cls-1" d="M59.05,62.75c.05-.1-.01-.22-.13-.24-.84-.13-1.78-.19-2.73-.19s-1.89.07-2.73.19c-.11.02-.18.14-.13.24.51,1.07,1.6,1.81,2.86,1.81s2.35-.74,2.86-1.81Z"/>
    <path class="cls-1" d="M71.11,66.33c.14,0,.28-.04.41-.12h0c.36-.23.46-.7.24-1.06-.22-.36-.7-.47-1.06-.24-.36.22-.47.7-.24,1.06.15.23.4.36.65.36Z"/>
    <path class="cls-1" d="M40.79,29.7c-.6,0-1.09.17-1.45.52-.36.35-.54.82-.54,1.42v2.92c0,.59.18,1.06.54,1.42.36.36.84.53,1.45.53s1.09-.18,1.45-.53c.37-.36.55-.83.55-1.42v-.09s-.01-.06-.03-.08c-.02-.02-.05-.03-.08-.03l-1.35-.06s-.06.01-.08.03c-.02.02-.03.05-.03.08v.28c0,.14-.04.25-.11.34-.08.09-.18.13-.3.13-.12,0-.22-.04-.3-.13-.08-.09-.11-.2-.11-.34v-3.17c0-.15.04-.26.11-.35.08-.09.18-.13.3-.13.13,0,.23.04.3.13.08.09.11.2.11.35v.26c0,.08.04.11.11.11l1.35-.06s.06-.01.08-.03c.02-.02.03-.05.03-.08v-.09c0-.6-.18-1.07-.55-1.42-.36-.35-.85-.52-1.45-.52Z"/>
    <path class="cls-1" d="M85.59,57.32c.15.14.34.22.54.22s.4-.08.54-.22c.07-.08.13-.16.17-.25.04-.09.05-.19.05-.29,0-.2-.08-.4-.22-.54-.18-.18-.44-.26-.69-.21-.05,0-.1.02-.15.04-.09.05-.18.1-.25.17-.08.07-.13.15-.17.25-.04.09-.06.19-.06.29s.02.2.06.29.09.18.17.25Z"/>
    <path class="cls-1" d="M61.09,72.19c.13,0,.25-.03.37-.1h0c.37-.21.5-.67.29-1.04-.21-.37-.67-.5-1.05-.3-.37.21-.5.67-.3,1.04.14.25.4.39.67.39Z"/>
    <path class="cls-1" d="M52.36,62.25c-.02-.09.03-.18.13-.2,1.06-.24,2.36-.37,3.71-.37s2.64.13,3.71.37c.09.02.15.11.13.2l-.11.45-.09.38c-.06.25.09.53.33.61.18.05.36,0,.49-.12.04-.04.1-.06.16-.05.06.01.1.06.12.11.05.16.18.28.35.32.17.04.34-.02.46-.13.04-.04.1-.06.16-.05.06.01.1.06.12.11.06.16.19.29.38.33.25.04.51-.15.57-.4l.66-2.82c.06-.25-.09-.53-.33-.61-.18-.05-.36,0-.49.12-.04.04-.1.06-.16.05-.06-.01-.1-.06-.12-.11-.05-.16-.18-.28-.35-.32-.17-.04-.34.02-.46.13-.04.04-.1.06-.16.05-.06-.01-.1-.06-.12-.11-.06-.16-.2-.29-.38-.33-.25-.04-.51.15-.57.39l-.18.75c-.02.09-.11.15-.2.13-.21-.05-.44-.09-.67-.13-.07-.01-.13-.07-.14-.14-.08-.48-.28-.93-.55-1.31-.04-.05-.05-.12-.01-.18.09-.15.14-.32.16-.51l.12-1.29c.05-.59-.32-1.18-.96-1.34-.1-.02-.2-.03-.3-.03h-3.12c-.59,0-1.15.42-1.25,1.08-.02.1-.02.2,0,.3l.12,1.28c.02.19.07.36.16.51.03.06.02.13-.01.18-.28.38-.47.83-.55,1.31-.01.07-.07.13-.14.14-.23.04-.45.08-.67.13-.09.02-.18-.04-.2-.13l-.18-.75c-.06-.25-.31-.44-.57-.39-.19.03-.33.16-.38.33-.02.06-.06.1-.12.11-.06.01-.12,0-.16-.05-.12-.12-.29-.17-.46-.13-.17.04-.3.17-.35.32-.02.06-.06.1-.12.11-.06.01-.12,0-.16-.05-.12-.12-.31-.18-.49-.12-.24.07-.39.36-.33.61l.66,2.82c.06.25.31.44.57.4.19-.03.32-.16.38-.33.02-.06.06-.1.12-.11.06-.01.12,0,.16.05.12.12.29.17.46.13.17-.04.3-.17.35-.32.02-.06.06-.1.12-.11.06-.01.12,0,.16.05.12.12.31.18.49.12.24-.07.39-.36.33-.61l-.09-.38-.11-.45ZM54.39,57.24s.12-.11.24-.11h3.12c.13,0,.2.07.24.11.04.04.1.13.08.25l-.09,1.02c-.01.13-.15.2-.26.13-.46-.25-.98-.4-1.54-.4s-1.08.14-1.54.4c-.11.06-.25,0-.26-.13l-.09-1.02c-.01-.12.05-.21.08-.25Z"/>
    <path class="cls-1" d="M26.56,56.23s-.07-.07-.12-.09c-.04-.03-.08-.05-.13-.08-.05-.02-.09-.03-.15-.04-.25-.05-.51.03-.69.21-.07.07-.13.15-.17.25-.04.1-.05.2-.05.3s.02.2.05.29.1.18.17.25c.07.08.15.13.25.17.09.04.19.06.3.06.1,0,.2-.02.29-.06.09-.04.18-.09.25-.17.08-.07.13-.15.17-.25.04-.09.06-.19.06-.29s-.02-.2-.06-.3c-.04-.09-.09-.18-.17-.25Z"/>
    <path class="cls-1" d="M50.42,71.02c-.22.36-.12.83.24,1.06h0c.13.08.27.12.4.12.26,0,.5-.13.65-.36.22-.36.11-.83-.25-1.06-.36-.23-.83-.12-1.06.24Z"/>
    <path class="cls-1" d="M76.12,63.4c.13,0,.25-.03.37-.1h0c.37-.21.5-.67.29-1.04-.21-.37-.67-.5-1.05-.3-.37.21-.5.67-.3,1.04.14.25.4.39.67.39Z"/>
    <path class="cls-1" d="M81.13,60.47c.14,0,.28-.04.41-.12h0c.36-.23.47-.7.24-1.06-.22-.36-.7-.47-1.06-.24-.36.22-.47.7-.24,1.06.15.23.4.36.65.36Z"/>
    <path class="cls-1" d="M63.31,41.3c-.68.6-1.01,1.4-1.01,2.42v4.46c0,1.01.34,1.82,1.01,2.42.68.6,1.58.9,2.71.9s2.03-.3,2.71-.9c.68-.6,1.01-1.4,1.01-2.42v-4.46c0-1.01-.34-1.82-1.01-2.42-.68-.6-1.58-.9-2.71-.9s-2.03.3-2.71.9ZM66.58,43.6v4.71c0,.22-.05.39-.15.51-.1.12-.24.19-.42.19s-.32-.06-.42-.19c-.1-.12-.15-.29-.15-.51v-4.71c0-.22.05-.39.15-.51.1-.12.24-.19.42-.19s.32.06.42.19c.1.12.15.29.15.51Z"/>
    <path class="cls-1" d="M63.04,36.44h1.35s.06-.01.08-.03.03-.05.03-.08v-2.5s.02-.05.05-.05h1.05s.06-.01.08-.03c.02-.02.03-.05.03-.08v-1.13s-.01-.06-.03-.08-.05-.03-.08-.03h-1.05s-.05-.02-.05-.05v-1.2s.02-.05.05-.05h1.91s.06-.01.08-.03c.02-.02.03-.05.03-.08v-1.12s-.01-.06-.03-.08c-.02-.02-.05-.03-.08-.03h-3.43s-.06.01-.08.03-.03.05-.03.08v6.44s.01.06.03.08c.02.02.05.03.08.03Z"/>
    <path class="cls-1" d="M.66,36.84l3.31.45.66,2.91-2.79,1.84c-.32.21-.44.63-.27.97l1.86,3.86c.17.35.56.51.93.4l3.18-1.03,1.86,2.33-1.71,2.87c-.2.33-.12.75.18.99l3.35,2.67c.3.24.73.22,1.01-.05l2.42-2.31,2.69,1.29-.3,3.33c-.03.38.22.73.59.82l4.17.95c.38.09.75-.12.89-.48l.36-.96v.35c0,.27.14.52.38.66l32.26,18.87c.12.07.25.1.39.1s.27-.03.39-.1l32.26-18.87c.23-.14.38-.39.38-.66v-4.03h1.7v-.77H21.58v.77h1.47v.04c-.2.08-.36.23-.44.44l-1.13,3-2.87-.65.29-3.19c.03-.32-.14-.62-.43-.76l-3.64-1.76c-.29-.14-.63-.08-.86.14l-2.32,2.21-2.3-1.83,1.64-2.75c.16-.27.14-.62-.06-.87l-2.52-3.16c-.2-.25-.53-.35-.84-.25l-3.05.99-1.28-2.65,2.67-1.77c.27-.18.4-.5.32-.81l-.9-3.94c-.07-.31-.33-.55-.64-.59l-3.17-.43v-2.94l3.17-.43c.32-.04.57-.29.65-.6l.9-3.93c.07-.31-.06-.63-.32-.81l-2.67-1.77,1.28-2.65,3.05.99c.3.1.64,0,.84-.25l2.52-3.16c.2-.25.22-.6.06-.87l-1.64-2.75,2.3-1.83,2.32,2.21c.23.22.58.27.86.14l3.64-1.76c.29-.14.46-.44.43-.76l-.29-3.19,2.87-.65,1.13,3c.11.3.4.5.72.5h4.05c.32,0,.61-.2.72-.5l1.13-3,2.87.65-.29,3.19c-.03.32.14.62.43.76l3.64,1.76c.29.14.63.08.86-.14l2.32-2.21,1.77,1.41c-.36-.01-.69.23-.77.59l-.88,3.87c-.09.37.12.75.48.89l1.31.49-2.02,1.18c-.08-.62-.34-1.21-.81-1.69-1.1-1.1-3.01-1.1-4.11,0-1.13,1.13-1.13,2.97,0,4.1.1.1.21.18.33.27l-1.79,1.05c-1.86-1.82-4.4-2.95-7.21-2.95-5.69,0-10.32,4.63-10.32,10.32,0,4.36,2.72,8.09,6.55,9.6v-1.67c-2.96-1.41-5.02-4.43-5.02-7.92,0-4.85,3.94-8.79,8.79-8.79,2.23,0,4.27.84,5.82,2.22l-7.75,4.53c-.23.14-.38.39-.38.66v4.83h-1.47v.77h69.23v-.77h-1.7v-4.33l.39-.07,1.45,1.45-.27,1.59c-.03.18.07.35.23.42l2.71,1.12c.17.07.36.01.46-.13l.93-1.32h2.06l.93,1.32c.07.1.19.16.31.16.05,0,.1,0,.15-.03l2.71-1.12c.17-.07.26-.24.23-.42l-.27-1.59,1.45-1.45,1.59.27c.17.03.35-.07.42-.23l1.12-2.71c.07-.17.01-.36-.13-.46l-1.32-.93v-2.06l1.32-.93c.15-.1.2-.29.13-.46l-1.12-2.71c-.07-.17-.25-.26-.42-.23l-1.59.27-1.45-1.45.27-1.59c.03-.18-.07-.35-.23-.42l-2.71-1.12c-.17-.07-.36-.01-.46.13l-.93,1.32h-2.06l-.93-1.32c-.1-.15-.29-.2-.46-.13l-2.71,1.12c-.17.07-.26.24-.23.42l.27,1.59-1.45,1.45-1.59-.27c-.18-.03-.35.07-.42.23l-1.12,2.71c-.07.17-.01.36.13.46l1.32.93v2.06l-1.32.93c-.15.1-.2.29-.13.46l.1.25-1.14-.67.69-3.03c.09-.37-.12-.75-.48-.89l-1.5-.56.14-.82c.05-.32-.09-.63-.37-.79l-1.14-.66v-.94l.86-.32.97.26c.31.08.64-.04.82-.3l1.46-2.06c.19-.26.19-.61,0-.87l-.98-1.45.99-.89,1.33,1.14c.24.21.59.24.87.09l2.21-1.22c.28-.15.43-.47.39-.78l-.26-1.73,1.28-.37.71,1.6c.13.29.41.48.74.46l2.52-.14c.32-.02.59-.23.69-.54l.52-1.67,1.31.22-.06,1.75c-.01.32.18.61.47.73l2.33.97c.3.12.64.05.85-.19l1.19-1.28,1.09.77-.81,1.55c-.15.28-.11.63.11.87l1.68,1.88c.21.24.55.32.85.2l1.63-.63.64,1.17-1.4,1.04c-.26.19-.37.52-.28.83l.7,2.43c.09.31.36.53.68.55l1.74.14.07,1.33-1.72.33c-.31.06-.56.31-.61.62l-.42,2.49c-.05.32.09.63.37.79l1.51.88-.51,1.23-1.69-.45c-.31-.08-.64.04-.82.3l-1.46,2.06c-.18.26-.19.61,0,.87l.98,1.45-.99.89-1.33-1.13c-.24-.21-.59-.24-.87-.09l-2.21,1.22c-.28.16-.43.47-.39.78l.25,1.73-1.28.37-.7-1.6c-.13-.29-.41-.47-.74-.46l-2.52.14c-.32.02-.59.23-.69.54l-.52,1.67-1.31-.22.06-1.75c.01-.32-.18-.61-.47-.73l-1.72-.71v1.66l.64.26-.06,1.89c-.01.38.26.72.64.78l2.63.45s.09.01.13.01c.33,0,.63-.21.73-.54l.56-1.8,1.46-.08.76,1.73c.15.35.54.53.91.43l2.57-.74c.37-.11.6-.47.55-.85l-.27-1.87,1.28-.71,1.43,1.23c.29.25.72.24,1.01-.01l1.99-1.78c.29-.25.34-.68.12-1l-1.06-1.56.85-1.19,1.82.48c.37.1.76-.09.9-.45l1.02-2.47c.15-.35,0-.76-.32-.96l-1.63-.95.24-1.44,1.85-.36c.38-.07.64-.41.62-.8l-.15-2.67c-.02-.38-.32-.69-.7-.72l-1.88-.15-.41-1.4,1.51-1.13c.31-.23.4-.65.21-.99l-1.29-2.34c-.19-.34-.59-.48-.95-.34l-1.76.68-.98-1.09.88-1.67c.18-.34.08-.76-.24-.98l-2.18-1.55c-.31-.22-.74-.18-1,.1l-1.29,1.38-1.35-.56.06-1.89c.01-.38-.26-.72-.64-.78l-2.63-.45c-.37-.06-.74.16-.86.53l-.56,1.8-1.46.08-.76-1.73c-.15-.35-.54-.53-.91-.43l-2.57.74c-.37.11-.6.47-.55.85l.27,1.87-1.28.71-1.43-1.23c-.29-.25-.72-.24-1.01.01l-1.26,1.13c-.15-.23-.43-.36-.7-.34l-3.05.27-1.17-2.43,2.12-2.21c.26-.28.28-.71.05-1.01l-2.48-3.11c-.24-.3-.66-.38-.99-.18l-2.63,1.57-2.1-1.68.95-2.91c.12-.36-.05-.76-.4-.93l-3.58-1.72c-.34-.17-.76-.05-.97.27l-1.69,2.56-2.62-.6-.41-3.04c-.05-.38-.38-.66-.76-.66h-3.97c-.38,0-.71.28-.76.66l-.41,3.04-2.62.6-1.69-2.56c-.21-.32-.63-.43-.97-.27l-3.58,1.72c-.35.17-.52.56-.4.93l.95,2.91-2.1,1.68-2.63-1.57c-.33-.2-.75-.12-.99.18l-2.48,3.11c-.24.3-.22.73.05,1.01l2.12,2.21-1.17,2.43-.81-.07c-.01-.21-.1-.41-.28-.55l-3.35-2.67c-.3-.24-.73-.22-1.01.05l-2.42,2.31-2.69-1.29.3-3.33c.03-.38-.22-.73-.59-.82l-4.17-.95c-.38-.09-.75.12-.89.48l-1.17,3.13h-2.98l-1.17-3.13c-.14-.36-.51-.57-.89-.48l-4.17.95c-.37.09-.63.43-.59.82l.3,3.33-2.69,1.29-2.42-2.31c-.28-.27-.71-.28-1.01-.05l-3.35,2.67c-.3.24-.38.66-.18.99l1.71,2.87-1.86,2.33-3.18-1.03c-.36-.12-.76.05-.93.4l-1.86,3.86c-.17.35-.05.76.27.97l2.79,1.84-.66,2.91-3.31.45c-.38.05-.66.38-.66.76v4.28c0,.38.28.71.66.76ZM28.61,54.01h54.93v1.28l-27.47,16.06-27.47-16.06v-1.28ZM24.58,54.01h3.27v1.5c0,.14.07.26.19.33l27.85,16.29c.06.03.13.05.19.05s.13-.02.19-.05l27.85-16.29c.12-.07.19-.19.19-.33v-1.5h3.27v3.59l-31.5,18.42-31.5-18.42v-3.59ZM96.04,20.47c4.11,0,7.45,3.34,7.45,7.45s-3.34,7.45-7.45,7.45-7.45-3.34-7.45-7.45,3.34-7.45,7.45-7.45ZM34.56,21.69c.4-.4.94-.63,1.51-.63s1.11.22,1.51.63c.43.43.64,1.01.62,1.58l-3.1,1.82c-.19-.1-.38-.21-.54-.37-.83-.83-.83-2.19,0-3.02ZM83.54,37.4H28.61v-2.08l27.47-16.06,27.47,16.06v2.08ZM87.57,33v4.39h-3.27v-2.3c0-.14-.07-.26-.19-.33l-27.85-16.29c-.12-.07-.27-.07-.39,0l-27.85,16.29c-.12.07-.19.19-.19.33v2.3h-3.27v-4.39l31.5-18.42,31.5,18.42ZM62.6,13.59c-1.37,0-2.67.28-3.85.78l-2.28-1.34c-.24-.14-.53-.14-.77,0l-1.42.83c2.24-1.93,5.15-3.1,8.33-3.1,7.07,0,12.82,5.75,12.82,12.82,0,.18-.02.35-.03.52l-2.88-1.68c-.58-4.96-4.8-8.83-9.92-8.83ZM71.67,21.93l-12.06-7.06c.94-.32,1.95-.51,3-.51,4.52,0,8.28,3.27,9.07,7.57ZM44.3,17.65c.33.03.62-.14.76-.43l1.63-3.38c.14-.29.08-.63-.14-.86l-2.02-2.11,1.64-2.06,2.51,1.5c.27.16.62.14.87-.06l2.93-2.34c.25-.2.35-.53.25-.84l-.91-2.78,2.37-1.14,1.61,2.44c.18.27.5.4.81.32l3.66-.84c.31-.07.55-.33.59-.64l.39-2.9h2.63l.39,2.9c.04.32.28.57.59.64l3.66.84c.31.07.63-.06.81-.32l1.61-2.44,2.37,1.14-.9,2.78c-.1.3,0,.64.25.84l2.93,2.34c.25.2.6.22.87.06l2.51-1.5,1.64,2.06-2.02,2.11c-.22.23-.28.58-.14.86l1.63,3.38c.14.29.43.46.76.43l2.91-.26.59,2.57-2.74,1.03c-.3.11-.5.4-.5.72v3.75c0,.32.2.61.5.72l2.74,1.03-.43,1.91-7.07-4.13c.04-.46.07-.92.07-1.39,0-7.91-6.44-14.35-14.35-14.35-5.19,0-9.74,2.78-12.26,6.93l-7.69,4.5-1.85-.7.59-2.57,2.91.26Z"/>
    <path class="cls-1" d="M81.12,31.67c.27,0,.53-.14.67-.39.21-.37.07-.84-.3-1.04h0c-.37-.21-.83-.07-1.04.3-.21.37-.07.84.3,1.04.12.07.25.1.37.1Z"/>
    <path class="cls-1" d="M85.72,47.94s-.11-.06-.18-.06h-2.61c-.08,0-.14.02-.18.06-.04.04-.07.1-.07.17v.48c0,.57.15,1.07.44,1.51.3.44.71.78,1.25,1.03.54.25,1.16.37,1.88.37,1.07,0,1.94-.28,2.6-.84.66-.56.99-1.31.99-2.25,0-.51-.1-.95-.31-1.32-.21-.38-.49-.72-.86-1.01-.36-.3-.9-.69-1.62-1.18-.54-.36-.89-.64-1.07-.83-.18-.19-.27-.39-.27-.6,0-.18.04-.32.13-.42.08-.1.2-.15.34-.15s.26.05.35.15c.09.1.13.22.13.38v.4c0,.07.02.13.07.17.04.04.11.06.18.06h2.6c.08,0,.14-.02.18-.06.04-.04.07-.1.07-.17v-.34c0-.61-.15-1.15-.44-1.61-.3-.46-.72-.83-1.26-1.08-.54-.26-1.17-.39-1.89-.39s-1.33.13-1.87.39c-.54.26-.96.62-1.26,1.08-.3.47-.44,1-.44,1.61s.13,1.11.4,1.56c.27.45.58.83.95,1.13.36.3.82.63,1.38.99.57.37.94.64,1.12.81.18.17.27.34.27.52,0,.15-.05.26-.13.36-.09.09-.2.14-.33.14s-.25-.05-.34-.16-.13-.24-.13-.4v-.34c0-.07-.02-.13-.07-.17Z"/>
    <path class="cls-1" d="M79.65,45.51c.21-.45.32-.96.32-1.53,0-.67-.15-1.27-.44-1.79-.29-.52-.7-.93-1.21-1.22-.52-.29-1.11-.44-1.79-.44h-3.77c-.08,0-.14.02-.18.06-.04.04-.07.1-.07.17v10.38c0,.07.02.13.07.17.04.04.11.06.18.06h2.65c.08,0,.14-.02.18-.06.04-.04.07-.1.07-.17v-3.84c0-.06.02-.09.07-.09.02,0,.04.03.07.08l1.02,3.89c.03.13.12.2.27.2h2.73c.16,0,.23-.06.23-.19,0-.03,0-.06-.02-.08l-1.36-4.38c-.01-.05,0-.09.05-.12.4-.28.71-.64.92-1.09ZM76.59,44.74c-.16.17-.36.26-.6.26h-.22c-.07,0-.1-.03-.1-.09v-1.78c0-.06.03-.09.1-.09h.22c.26,0,.46.08.61.26.15.17.23.42.23.74s-.08.55-.23.72Z"/>
    <path class="cls-1" d="M71.1,25.81c.26,0,.51-.13.65-.36.22-.36.12-.83-.24-1.06h0c-.36-.23-.83-.12-1.05.24-.22.36-.11.83.25,1.06.13.08.27.12.41.12Z"/>
    <path class="cls-1" d="M76.11,28.74c.26,0,.51-.13.65-.36.22-.36.12-.83-.24-1.06h0c-.36-.23-.83-.12-1.05.24-.22.36-.11.83.25,1.06.13.08.27.12.41.12Z"/>
    <path class="cls-1" d="M66.1,22.88c.27,0,.53-.14.67-.39.21-.37.07-.84-.3-1.04h0c-.37-.21-.83-.07-1.04.3-.21.37-.07.84.3,1.04.12.07.25.1.37.1Z"/>
    <path class="cls-1" d="M61.09,19.95c.26,0,.51-.13.65-.36.22-.36.12-.83-.24-1.06h0c-.36-.23-.83-.12-1.05.24-.22.36-.11.83.25,1.06.13.08.27.12.41.12Z"/>
    <path class="cls-1" d="M55.53,15.71c-.07.08-.12.16-.16.25-.04.09-.06.19-.06.29s.02.2.06.29c.04.09.09.18.16.25.15.14.34.22.54.22.1,0,.2-.02.29-.06s.18-.09.25-.16c.15-.15.22-.34.22-.54,0-.1-.02-.2-.06-.29-.04-.09-.09-.18-.16-.25-.28-.28-.8-.28-1.09,0Z"/>
  </g>
</svg>